# xmcd CD database file
#
# Track frame offsets:
#	187
#	13155
#	28232
#	39820
#	52055
#	74800
#	85737
#	100990
#	115647
#	129855
#	142407
#	154410
#	168795
#	179822
#	192865
#
# Disc length: 2762 seconds
#
# Revision: 0
# Processed by: cddbd v1.5PL3 Copyright (c) Steve Scherf et al.
# Submitted via: CDex 1.51
#
DISCID=d70ac80f
DTITLE=BENNY CARTER - SWINGIN' THE '20s
DYEAR=1958
DGENRE=Jazz
TTITLE0=Thou Swell
TTITLE1=My Blue Heaven
TTITLE2=Just Imagine
TTITLE3=If I Could be with You (One Hour Tonight)
TTITLE4=Sweet Lorraine
TTITLE5=Who's Sorry Now
TTITLE6=Laugh! Laugh! Laugh!
TTITLE7=All Alone
TTITLE8=Mary Lou
TTITLE9=In a Little Spanish Town
TTITLE10=Someone to Watch over Me
TTITLE11=A Monday Date
TTITLE12=Who's Sorry Now (alternate take)
TTITLE13=Laugh! Laugh! Laugh! (alternate take)
TTITLE14=All Alone (alternate take)
EXTD=YEAR: 1958
EXTT0=
EXTT1=
EXTT2=
EXTT3=
EXTT4=
EXTT5=
EXTT6=
EXTT7=
EXTT8=
EXTT9=
EXTT10=
EXTT11=
EXTT12=
EXTT13=
EXTT14=
PLAYORDER=
